<svg width="130" height="437" xmlns="http://www.w3.org/2000/svg"><g fill="none" fill-rule="evenodd"><g transform="translate(1 13)" fill="#000" stroke="#000"><circle cx="44" cy="409" r="4"/><circle cx="4" cy="369" r="4"/><circle cx="84" cy="369" r="4"/><circle cx="124" cy="329" r="4"/><circle cx="44" cy="329" r="4"/><circle cx="4" cy="289" r="4"/><circle cx="84" cy="289" r="4"/><circle cx="124" cy="249" r="4"/><circle cx="44" cy="249" r="4"/><circle cx="4" cy="209" r="4"/><circle cx="84" cy="209" r="4"/><circle cx="124" cy="169" r="4"/><circle cx="44" cy="169" r="4"/><circle cx="4" cy="129" r="4"/><circle cx="84" cy="129" r="4"/><circle cx="64" cy="4" r="4"/></g><g stroke="#000"><path d="M45 422l40-40-40-40 40-40-40-40 40-40-40-40 40-40-20-20M45 422L5 382l40-40-40-40 40-40-40-40 40-40-40-40 20-20m60 260l40-40-40-40 40-40-40-40 40-40-40-40 20-20"/><path d="M45 102V52m40 50V52" stroke-dasharray="2,4"/></g><path d="M76.3 0h6.9v.6H80V7h-.6V.6h-3.1V0M56.3 437h6.9v-.6H60V430h-.6v6.4h-3.1v.6" fill="#000"/></g></svg>