<?xml version="1.0" encoding="UTF-8"?>
<svg width="130px" height="437px" viewBox="0 0 130 437" version="1.1" xmlns="http://www.w3.org/2000/svg" xmlns:xlink="http://www.w3.org/1999/xlink">
    <!-- Generator: Sketch 52.5 (67469) - http://www.bohemiancoding.com/sketch -->
    <title>Rieger-Nishimura</title>
    <desc>Created with Sketch.</desc>
    <g id="Page-1" stroke="none" stroke-width="1" fill="none" fill-rule="evenodd">
        <g id="Rieger-Nishimura" transform="translate(1.000000, 0.000000)">
            <g id="Group" transform="translate(0.000000, 13.000000)" fill="#000000" stroke="#000000">
                <circle id="Oval" cx="44" cy="409" r="4"></circle>
                <circle id="Oval" cx="4" cy="369" r="4"></circle>
                <circle id="Oval" cx="84" cy="369" r="4"></circle>
                <circle id="Oval" cx="124" cy="329" r="4"></circle>
                <circle id="Oval" cx="44" cy="329" r="4"></circle>
                <circle id="Oval" cx="4" cy="289" r="4"></circle>
                <circle id="Oval" cx="84" cy="289" r="4"></circle>
                <circle id="Oval" cx="124" cy="249" r="4"></circle>
                <circle id="Oval" cx="44" cy="249" r="4"></circle>
                <circle id="Oval" cx="4" cy="209" r="4"></circle>
                <circle id="Oval" cx="84" cy="209" r="4"></circle>
                <circle id="Oval" cx="124" cy="169" r="4"></circle>
                <circle id="Oval" cx="44" cy="169" r="4"></circle>
                <circle id="Oval" cx="4" cy="129" r="4"></circle>
                <circle id="Oval" cx="84" cy="129" r="4"></circle>
                <circle id="Oval" cx="64" cy="4" r="4"></circle>
            </g>
            <g id="Group" transform="translate(4.000000, 52.000000)" stroke="#000000">
                <path d="M40,370 L80,330 L40,290 L80,250 L40,210 L80,170 L40,130 L80,90 L60,70 M40,370 L0,330 L40,290 L0,250 L40,210 L0,170 L40,130 L0,90 L20,70 M80,330 L120,290 L80,250 L120,210 L80,170 L120,130 L80,90 L100,70" id="Shape"></path>
                <path d="M40,50 L40,0 M80,50 L80,0" id="Shape" stroke-dasharray="2,4"></path>
            </g>
            <g id="t-link" transform="translate(75.000000, 0.000000)" fill="#000000">
                <polyline id="t" points="0.3 0 7.2 0 7.2 0.6 4 0.6 4 7 3.4 7 3.4 0.6 0.3 0.6 0.3 0"></polyline>
            </g>
            <polyline id="b" fill="#000000" points="55.3 437 62.2 437 62.2 436.4 59 436.4 59 430 58.4 430 58.4 436.4 55.3 436.4 55.3 437"></polyline>
        </g>
    </g>
</svg>